<svg width="286" height="81" viewBox="0 0 286 81" fill="none" xmlns="http://www.w3.org/2000/svg">
<path d="M59.1294 58.791C60.4758 62.3659 56.9811 65.8605 53.4062 64.5141L13.6598 49.544C11.2303 49.476 8.84871 48.5351 7.02512 46.7115C3.14524 42.8314 3.25954 36.4261 7.28062 32.405C9.20844 30.4772 11.6845 29.4496 14.1673 29.3273C14.2898 26.8447 15.3167 24.3689 17.2443 22.4413C19.3013 20.3844 21.9821 19.3518 24.6296 19.3511C24.6306 16.704 25.6624 14.0232 27.719 11.9666C31.7402 7.94571 38.1455 7.83126 42.0255 11.7111C44.3786 14.0641 45.2606 17.346 44.6951 20.4615L59.1294 58.791ZM24.2712 46.5589C25.4704 45.3596 25.471 43.4154 24.2719 42.2161C23.0726 41.0168 21.1278 41.0168 19.9284 42.2161C18.7294 43.4154 18.7299 45.3596 19.9291 46.5589C21.1284 47.7579 23.072 47.7579 24.2712 46.5589ZM40.7729 37.4279C42.9896 35.2112 42.9902 31.6173 40.7736 29.4005C38.5568 27.1837 34.9622 27.1837 32.7454 29.4005C30.5288 31.6173 30.5294 35.2112 32.7461 37.4279C34.9629 39.6444 38.5562 39.6445 40.7729 37.4279ZM38.6792 52.0866C40.3176 50.4481 40.3175 47.792 38.6792 46.1535C37.0407 44.5151 34.3839 44.5144 32.7454 46.1528C31.1069 47.7913 31.1076 50.4481 32.7461 52.0866C34.3846 53.725 37.0407 53.725 38.6792 52.0866ZM46.61 46.5589C47.8091 45.3595 47.8085 43.4153 46.6093 42.2161C45.41 41.0169 43.4659 41.0163 42.2665 42.2154C41.0672 43.4147 41.0672 45.3596 42.2665 46.5589C43.4658 47.7582 45.4107 47.7582 46.61 46.5589ZM52.291 58.7212C52.9657 58.0466 52.9657 56.9528 52.291 56.2781C51.6163 55.6036 50.5225 55.6035 49.8479 56.2781C49.1733 56.9528 49.1734 58.0466 49.8479 58.7212C50.5226 59.3959 51.6163 59.3959 52.291 58.7212Z" fill="white"/>
<path d="M102.693 61H91.8765V14.408H110.565C114.191 14.408 117.349 15.0907 120.037 16.456C122.767 17.7787 124.837 19.6347 126.245 22.024C127.695 24.4133 128.421 27.144 128.421 30.216C128.421 33.2027 127.695 35.8267 126.245 38.088C124.837 40.3067 122.789 42.0347 120.101 43.272C117.413 44.4667 114.234 45.064 110.565 45.064H102.693V61ZM102.693 36.488H110.565C112.911 36.488 114.639 35.9333 115.749 34.824C116.901 33.672 117.477 32.1573 117.477 30.28C117.477 28.1893 116.901 26.4827 115.749 25.16C114.597 23.7947 112.869 23.112 110.565 23.112H102.693V36.488ZM133.502 14.408H165.374V23.112H144.318V32.84H162.11V41.224H144.318V52.36H165.31V61H133.502V14.408ZM169.189 14.408H201.061V23.112H180.005V32.84H197.797V41.224H180.005V52.36H200.997V61H169.189V14.408ZM203.405 54.92L225.613 23.112H203.213V14.408H238.861V20.296L217.037 52.36H239.373V61H203.405V54.92ZM257.321 14.408H267.305L284.585 61H273.129L270.249 52.168H254.313L251.497 61H239.977L257.321 14.408ZM262.313 27.592L257.193 43.528H267.369L262.313 27.592Z" fill="white"/>
</svg>
