<svg width="61" height="62" viewBox="0 0 61 62" fill="none" xmlns="http://www.w3.org/2000/svg">
<path d="M60.4296 54.9536C61.8966 58.8489 58.0886 62.6568 54.1934 61.1898L10.8845 44.878C8.23722 44.8039 5.6423 43.7791 3.65526 41.792C-0.572502 37.5642 -0.447975 30.5848 3.93355 26.2032C6.03418 24.1026 8.73224 22.9839 11.4376 22.8507C11.5708 20.1454 12.6895 17.4473 14.7901 15.3467C17.0313 13.1055 19.9523 11.9812 22.8369 11.9803C22.8378 9.0957 23.9621 6.17468 26.2033 3.93352C30.5848 -0.447963 37.5643 -0.57252 41.7921 3.65523C44.3565 6.21967 45.3175 9.79619 44.7006 13.1915L60.4296 54.9536ZM22.4475 41.6318C23.7542 40.325 23.7542 38.2057 22.4475 36.8989C21.1407 35.5921 19.0213 35.5921 17.7145 36.8989C16.4079 38.2057 16.4085 40.3244 17.7152 41.6311C19.022 42.9379 21.1407 42.9385 22.4475 41.6318ZM40.4276 31.6812C42.843 29.2658 42.843 25.349 40.4276 22.9336C38.0121 20.5183 34.096 20.5189 31.6806 22.9342C29.2655 25.3497 29.2654 29.2652 31.6806 31.6806C34.0959 34.0959 38.0121 34.0964 40.4276 31.6812ZM38.1454 47.654C39.9307 45.8687 39.9314 42.9738 38.1461 41.1885C36.3607 39.4032 33.4659 39.4039 31.6806 41.1892C29.8955 42.9746 29.8954 45.8688 31.6806 47.654C33.4658 49.4392 36.36 49.439 38.1454 47.654ZM46.7867 41.6311C48.0934 40.3244 48.0941 38.2057 46.7874 36.8989C45.4806 35.5921 43.3613 35.5921 42.0545 36.8989C40.7477 38.2057 40.7477 40.325 42.0545 41.6318C43.3613 42.9385 45.48 42.9379 46.7867 41.6311ZM52.978 54.8797C53.7131 54.1446 53.7124 52.9528 52.9773 52.2177C52.2422 51.4827 51.0505 51.482 50.3153 52.217C49.5802 52.9521 49.5803 54.1446 50.3153 54.8797C51.0505 55.6149 52.2429 55.6149 52.978 54.8797Z" fill="#FF5A15"/>
</svg>
