<svg width="36" height="31" viewBox="0 0 36 31" fill="none" xmlns="http://www.w3.org/2000/svg">
<path d="M33.5957 12.8711C35.709 13.828 35.709 16.8302 33.5957 17.7871L10.0986 28.4268C9.02624 29.4405 7.6 30.0586 6.03417 30.0586C2.7018 30.0586 -5.99008e-06 27.2592 -5.83912e-06 23.8057C1.59612e-05 22.1501 0.622247 20.646 1.63574 19.5273C0.622228 18.4088 6.80403e-05 16.9045 -5.4651e-06 15.249C-5.38788e-06 13.4826 0.708271 11.8881 1.84472 10.751C0.708182 9.6138 6.2746e-06 8.01947 -5.07187e-06 6.25293C-4.92091e-06 2.79938 2.7018 -1.4197e-06 6.03417 -1.27403e-06C8.05485 4.75257e-05 9.84248 1.0299 10.9375 2.61035L33.5957 12.8711ZM16.541 11.582C16.541 9.67823 14.9976 8.13476 13.0937 8.13476C11.19 8.13484 9.64653 9.67828 9.64648 11.582C9.64648 13.4858 11.19 15.0292 13.0937 15.0293C14.9976 15.0293 16.541 13.4859 16.541 11.582ZM13.3769 22.5898C13.3769 21.5598 12.5417 20.7246 11.5117 20.7246C10.4817 20.7246 9.64648 21.5598 9.64648 22.5898C9.64652 23.6198 10.4817 24.4551 11.5117 24.4551C12.5417 24.4551 13.3769 23.6198 13.3769 22.5898ZM21.9365 18.7764C21.9365 17.3692 20.7959 16.2285 19.3887 16.2285C17.9815 16.2286 16.8408 17.3692 16.8408 18.7764C16.8408 20.1835 17.9816 21.3241 19.3887 21.3242C20.7958 21.3242 21.9365 20.1835 21.9365 18.7764ZM22.9687 12.9971C22.9685 11.9673 22.1334 11.1328 21.1035 11.1328C20.0738 11.133 19.2395 11.9674 19.2393 12.9971C19.2393 14.0269 20.0737 14.8621 21.1035 14.8623C22.1335 14.8623 22.9687 14.0271 22.9687 12.9971ZM30.6299 15.7783C30.6296 15.1992 30.1601 14.7297 29.581 14.7295C29.0018 14.7295 28.5315 15.1991 28.5312 15.7783C28.5312 16.3578 29.0016 16.8281 29.581 16.8281C30.1603 16.8279 30.6299 16.3576 30.6299 15.7783Z" fill="white"/>
</svg>
